<?xml version="1.0" encoding="UTF-8"?>
<svg width="120" height="120" viewBox="0 0 120 120" fill="none" xmlns="http://www.w3.org/2000/svg" role="img" aria-label="Box office">
  <defs>
    <linearGradient id="boBg" x1="16" y1="12" x2="104" y2="108" gradientUnits="userSpaceOnUse">
      <stop stop-color="#241f2f"></stop>
      <stop offset="1" stop-color="#17131f"></stop>
    </linearGradient>
    <linearGradient id="boGold" x1="34" y1="36" x2="88" y2="88" gradientUnits="userSpaceOnUse">
      <stop stop-color="#F4CE6E"></stop>
      <stop offset="1" stop-color="#D9A63C"></stop>
    </linearGradient>
  </defs>
  <rect x="10" y="10" width="100" height="100" rx="26" fill="url(#boBg)" stroke="#3a3348" stroke-width="1.5"></rect>
  <rect x="10.75" y="10.75" width="98.5" height="98.5" rx="25.25" stroke="#ffffff" stroke-opacity="0.05" stroke-width="1.5"></rect>
  <g stroke="url(#boGold)" stroke-width="5" stroke-linecap="round" stroke-linejoin="round" fill="none">
    <!-- Ticket / stub -->
    <path d="M36 44 h34 a8 8 0 0 1 0 16 a8 8 0 0 1 0 16 H36 a6 6 0 0 1 -6 -6 V50 a6 6 0 0 1 6 -6 z"></path>
    <path d="M52 44 v32" stroke-dasharray="0 10"></path>
    <!-- Seat hint -->
    <path d="M78 52 h14 v10 a8 8 0 0 1 -8 8 h-6 z"></path>
    <path d="M78 70 v12"></path>
    <path d="M92 70 v12"></path>
  </g>
</svg>
