<?xml version="1.0" encoding="UTF-8"?>
<svg data-dc-tpl="16" width="96" height="96" viewBox="0 0 96 96" fill="none" xmlns="http://www.w3.org/2000/svg" role="img" aria-label="Calendario">
          <defs data-dc-tpl="17">
            <linearGradient data-dc-tpl="18" id="calBg" x1="16" y1="12" x2="80" y2="84" gradientUnits="userSpaceOnUse">
              <stop data-dc-tpl="19" stop-color="#241f2f"></stop>
              <stop data-dc-tpl="20" offset="1" stop-color="#17131f"></stop>
            </linearGradient>
            <linearGradient data-dc-tpl="21" id="calGold" x1="30" y1="26" x2="66" y2="74" gradientUnits="userSpaceOnUse">
              <stop data-dc-tpl="22" stop-color="#F4CE6E"></stop>
              <stop data-dc-tpl="23" offset="1" stop-color="#D9A63C"></stop>
            </linearGradient>
          </defs>
          <rect data-dc-tpl="24" x="8" y="8" width="80" height="80" rx="22" fill="url(#calBg)" stroke="#3a3348" stroke-width="1.5"></rect>
          <rect data-dc-tpl="25" x="8.75" y="8.75" width="78.5" height="78.5" rx="21.25" stroke="#ffffff" stroke-opacity="0.05" stroke-width="1.5"></rect>
          
          <rect data-dc-tpl="26" x="35" y="23" width="5" height="12" rx="2.5" fill="url(#calGold)"></rect>
          <rect data-dc-tpl="27" x="56" y="23" width="5" height="12" rx="2.5" fill="url(#calGold)"></rect>
          
          <rect data-dc-tpl="28" x="27" y="30" width="42" height="40" rx="8" stroke="url(#calGold)" stroke-width="3"></rect>
          
          <path data-dc-tpl="29" d="M27 43 H69" stroke="url(#calGold)" stroke-width="3" stroke-linecap="round"></path>
          
          <g data-dc-tpl="30" fill="url(#calGold)">
            <circle data-dc-tpl="31" cx="35" cy="52" r="2.4"></circle>
            <circle data-dc-tpl="32" cx="44" cy="52" r="2.4"></circle>
            <circle data-dc-tpl="33" cx="53" cy="52" r="2.4"></circle>
            <circle data-dc-tpl="34" cx="35" cy="62" r="2.4"></circle>
            <rect data-dc-tpl="35" x="41" y="59" width="6" height="6" rx="3" fill="#F4CE6E"></rect>
            <circle data-dc-tpl="36" cx="53" cy="62" r="2.4"></circle>
            <circle data-dc-tpl="37" cx="61" cy="52" r="2.4"></circle>
          </g>
        </svg>