<?xml version="1.0" encoding="UTF-8"?>
<svg data-dc-tpl="16" width="120" height="120" viewBox="0 0 120 120" fill="none" xmlns="http://www.w3.org/2000/svg" role="img" aria-label="Calendario con reloj" data-om-id="7d08546e:21">
          <defs data-dc-tpl="17" data-om-id="7d08546e:22">
            <linearGradient data-dc-tpl="18" id="ccBg" x1="16" y1="12" x2="104" y2="108" gradientUnits="userSpaceOnUse" data-om-id="7d08546e:23">
              <stop data-dc-tpl="19" stop-color="#241f2f" data-om-id="7d08546e:24"></stop>
              <stop data-dc-tpl="20" offset="1" stop-color="#17131f" data-om-id="7d08546e:25"></stop>
            </linearGradient>
            <linearGradient data-dc-tpl="21" id="ccGold" x1="34" y1="34" x2="86" y2="90" gradientUnits="userSpaceOnUse" data-om-id="7d08546e:26">
              <stop data-dc-tpl="22" stop-color="#F4CE6E" data-om-id="7d08546e:27"></stop>
              <stop data-dc-tpl="23" offset="1" stop-color="#D9A63C" data-om-id="7d08546e:28"></stop>
            </linearGradient>
          </defs>
          <rect data-dc-tpl="24" x="10" y="10" width="100" height="100" rx="26" fill="url(#ccBg)" stroke="#3a3348" stroke-width="1.5" data-om-id="7d08546e:29"></rect>
          <rect data-dc-tpl="25" x="10.75" y="10.75" width="98.5" height="98.5" rx="25.25" stroke="#ffffff" stroke-opacity="0.05" stroke-width="1.5" data-om-id="7d08546e:30"></rect>

          <g data-dc-tpl="26" stroke="url(#ccGold)" stroke-width="4.5" stroke-linecap="round" stroke-linejoin="round" fill="none" data-om-id="7d08546e:31">
            
            <path data-dc-tpl="27" d="M46 34 v9" data-om-id="7d08546e:32"></path>
            <path data-dc-tpl="28" d="M64 34 v9" data-om-id="7d08546e:33"></path>
            
            <path data-dc-tpl="29" d="M40 41 h34 a6 6 0 0 1 6 6 v9" data-om-id="7d08546e:34"></path>
            <path data-dc-tpl="30" d="M40 41 a6 6 0 0 0 -6 6 v30 a6 6 0 0 0 6 6 h16" data-om-id="7d08546e:35"></path>
            
            <path data-dc-tpl="31" d="M34 53 h46" data-om-id="7d08546e:36"></path>
          </g>

          
          <circle data-dc-tpl="32" cx="76" cy="76" r="21" fill="url(#ccBg)" data-om-id="7d08546e:37"></circle>
          <circle data-dc-tpl="33" cx="76" cy="76" r="15" stroke="url(#ccGold)" stroke-width="4.5" fill="none" data-om-id="7d08546e:38"></circle>
          <path data-dc-tpl="34" d="M76 68 v9 l6 4" stroke="url(#ccGold)" stroke-width="4.5" stroke-linecap="round" stroke-linejoin="round" fill="none" data-om-id="7d08546e:39"></path>
        </svg>